<svg width="112" height="112" viewBox="0 0 112 112" fill="none" xmlns="http://www.w3.org/2000/svg">
<rect width="112" height="112" fill="#151F42"/>
<path d="M39.852 41.116V46.836C39.5747 46.732 39.2627 46.6627 38.916 46.628C38.604 46.5587 38.2747 46.5067 37.928 46.472C37.5813 46.4373 37.2173 46.42 36.836 46.42C35.9693 46.42 35.1893 46.5413 34.496 46.784C33.8373 46.992 33.2307 47.3213 32.676 47.772C32.156 48.2227 31.6707 48.7947 31.22 49.488C30.7693 50.1813 30.3187 51.0133 29.868 51.984L29.764 49.124C30.3187 47.4947 30.96 46.0733 31.688 44.86C32.4507 43.612 33.352 42.6413 34.392 41.948C35.432 41.2547 36.6453 40.908 38.032 40.908C38.4133 40.908 38.76 40.9253 39.072 40.96C39.4187 40.9947 39.6787 41.0467 39.852 41.116ZM20.716 68V65.608H20.768C21.8427 65.608 22.7267 65.504 23.42 65.296C24.148 65.0533 24.512 64.568 24.512 63.84V46.108C24.512 45.6227 24.3907 45.2587 24.148 45.016C23.9053 44.7733 23.5413 44.5827 23.056 44.444C22.5707 44.2707 21.9467 44.1147 21.184 43.976L20.716 43.872V41.376H30.232V49.228L30.752 48.76V64.308C30.752 64.6893 30.96 64.984 31.376 65.192C31.8267 65.3653 32.3467 65.4867 32.936 65.556C33.56 65.5907 34.132 65.608 34.652 65.608H35.432V68H20.716ZM42.166 44.288V41.636H42.374C43.3447 41.636 44.1767 41.5667 44.87 41.428C45.5633 41.2547 46.0833 40.9773 46.43 40.596C46.8113 40.18 47.002 39.608 47.002 38.88L50.486 41.376H60.002V44.288H42.166ZM52.722 59.368C52.722 60.824 52.8953 62.0027 53.242 62.904C53.5887 63.7707 54.0913 64.3947 54.75 64.776C55.4087 65.1573 56.1887 65.348 57.09 65.348C57.818 65.348 58.4767 65.2613 59.066 65.088C59.69 64.9147 60.1753 64.7933 60.522 64.724V67.688C60.2447 67.8267 59.8633 67.948 59.378 68.052C58.8927 68.1907 58.3553 68.2947 57.766 68.364C57.2113 68.468 56.5873 68.52 55.894 68.52C54.1953 68.52 52.618 68.2427 51.162 67.688C49.7407 67.1333 48.5967 66.18 47.73 64.828C46.8633 63.476 46.43 61.6387 46.43 59.316V42.052L46.95 41.74L47.106 34.252H52.722V59.368ZM63.3722 68V65.608H63.4243C64.1523 65.608 64.7936 65.556 65.3483 65.452C65.9029 65.348 66.3363 65.1747 66.6483 64.932C66.9949 64.6547 67.1683 64.2907 67.1683 63.84V46.108C67.1683 45.6227 67.0469 45.2587 66.8043 45.016C66.5616 44.7733 66.1976 44.5827 65.7123 44.444C65.2269 44.2707 64.6029 44.1147 63.8403 43.976L63.3722 43.872V41.376H72.8883V46.94L73.4083 47.356V65.088C73.4083 65.192 73.5816 65.296 73.9283 65.4C74.2749 65.4693 74.7083 65.5213 75.2283 65.556C75.7483 65.5907 76.2336 65.608 76.6843 65.608H76.7883V68H63.3722ZM94.4163 68H81.0003V65.608H81.0523C81.5029 65.608 81.9883 65.5907 82.5083 65.556C83.0283 65.5213 83.4616 65.4693 83.8083 65.4C84.1896 65.296 84.3803 65.192 84.3803 65.088V49.644C84.3803 48.4307 84.2416 47.4427 83.9643 46.68C83.7216 45.9173 83.3056 45.3627 82.7163 45.016C82.1616 44.6347 81.3989 44.444 80.4283 44.444C79.3883 44.444 78.4003 44.6867 77.4643 45.172C76.5283 45.6227 75.6443 46.316 74.8123 47.252C74.0149 48.1533 73.2349 49.2627 72.4723 50.58L72.2643 47.2C73.1309 45.8133 74.0496 44.652 75.0202 43.716C75.9909 42.78 77.0656 42.0693 78.2443 41.584C79.4229 41.0987 80.7576 40.856 82.2483 40.856C83.9469 40.856 85.4203 41.168 86.6683 41.792C87.9163 42.416 88.8869 43.3693 89.5803 44.652C90.3083 45.9 90.6723 47.4947 90.6723 49.436V63.84C90.6723 64.2907 90.8283 64.6547 91.1403 64.932C91.4523 65.1747 91.8856 65.348 92.4403 65.452C92.9949 65.556 93.6363 65.608 94.3643 65.608H94.4163V68Z" fill="white"/>
<path d="M19 76H96" stroke="white" stroke-width="6"/>
<path d="M19 33H42" stroke="white" stroke-width="6"/>
<path d="M57 33H96" stroke="white" stroke-width="6"/>
</svg>
