<svg width="261" height="261" viewBox="0 0 261 261" fill="none" xmlns="http://www.w3.org/2000/svg">
<g filter="url(#filter0_d_602_103)">
<rect x="40.3434" y="36.4058" width="180" height="180" rx="32" fill="white"/>
<rect x="40.8434" y="36.9058" width="179" height="179" rx="31.5" stroke="white"/>
</g>
<path d="M108.181 117.818C108.181 119.049 108.314 120.047 108.547 120.778C108.813 121.51 109.146 122.308 109.611 123.173C109.777 123.439 109.844 123.705 109.844 123.938C109.844 124.27 109.644 124.603 109.212 124.936L107.117 126.333C106.817 126.532 106.518 126.632 106.252 126.632C105.919 126.632 105.587 126.466 105.254 126.166C104.789 125.667 104.389 125.135 104.057 124.603C103.724 124.038 103.392 123.406 103.026 122.641C100.432 125.701 97.1723 127.231 93.2477 127.231C90.454 127.231 88.2256 126.432 86.5959 124.836C84.9662 123.239 84.1348 121.111 84.1348 118.45C84.1348 115.623 85.1325 113.328 87.1613 111.599C89.1901 109.869 91.8841 109.005 95.3098 109.005C96.4406 109.005 97.6046 109.104 98.8352 109.271C100.066 109.437 101.33 109.703 102.66 110.002V107.574C102.66 105.047 102.128 103.284 101.097 102.253C100.033 101.222 98.2366 100.723 95.6756 100.723C94.5116 100.723 93.3142 100.856 92.0837 101.155C90.8531 101.455 89.6558 101.821 88.4917 102.286C87.9595 102.519 87.5604 102.652 87.3276 102.719C87.0948 102.785 86.9285 102.818 86.7955 102.818C86.3299 102.818 86.097 102.486 86.097 101.787V100.158C86.097 99.6255 86.1636 99.2264 86.3299 98.9936C86.4962 98.7608 86.7955 98.528 87.2611 98.2952C88.4252 97.6965 89.822 97.1976 91.4517 96.7985C93.0814 96.3662 94.8109 96.1666 96.6401 96.1666C100.598 96.1666 103.491 97.0646 105.354 98.8606C107.183 100.657 108.114 103.384 108.114 107.042V117.818H108.181ZM94.6779 122.874C95.7754 122.874 96.9062 122.674 98.1035 122.275C99.3009 121.876 100.365 121.144 101.263 120.146C101.795 119.514 102.194 118.816 102.394 118.018C102.593 117.22 102.727 116.255 102.727 115.124V113.727C101.762 113.495 100.731 113.295 99.6667 113.162C98.6024 113.029 97.5714 112.962 96.5404 112.962C94.312 112.962 92.6823 113.395 91.5848 114.293C90.4872 115.191 89.9551 116.455 89.9551 118.118C89.9551 119.681 90.3542 120.845 91.1857 121.643C91.9839 122.474 93.1479 122.874 94.6779 122.874V122.874ZM121.385 126.466C120.786 126.466 120.387 126.366 120.121 126.133C119.855 125.933 119.622 125.468 119.423 124.836L111.607 99.1267C111.407 98.4615 111.307 98.0291 111.307 97.7963C111.307 97.2642 111.573 96.9648 112.106 96.9648H115.365C115.997 96.9648 116.429 97.0646 116.662 97.2974C116.928 97.497 117.128 97.9626 117.327 98.5945L122.915 120.612L128.103 98.5945C128.269 97.9293 128.469 97.497 128.735 97.2974C129.001 97.0979 129.467 96.9648 130.065 96.9648H132.726C133.358 96.9648 133.79 97.0646 134.056 97.2974C134.323 97.497 134.555 97.9626 134.688 98.5945L139.943 120.878L145.697 98.5945C145.897 97.9293 146.129 97.497 146.362 97.2974C146.628 97.0979 147.061 96.9648 147.659 96.9648H150.752C151.285 96.9648 151.584 97.2309 151.584 97.7963C151.584 97.9626 151.551 98.1289 151.517 98.3284C151.484 98.528 151.418 98.7941 151.285 99.1599L143.269 124.869C143.07 125.534 142.837 125.967 142.571 126.166C142.305 126.366 141.872 126.499 141.307 126.499H138.447C137.815 126.499 137.382 126.399 137.116 126.166C136.85 125.933 136.617 125.501 136.484 124.836L131.329 103.384L126.207 124.803C126.041 125.468 125.842 125.9 125.575 126.133C125.309 126.366 124.844 126.466 124.245 126.466H121.385ZM164.123 127.364C162.393 127.364 160.664 127.164 159.001 126.765C157.338 126.366 156.041 125.933 155.176 125.435C154.644 125.135 154.278 124.803 154.145 124.503C154.012 124.204 153.945 123.871 153.945 123.572V121.876C153.945 121.177 154.211 120.845 154.71 120.845C154.91 120.845 155.109 120.878 155.309 120.945C155.509 121.011 155.808 121.144 156.14 121.277C157.271 121.776 158.502 122.175 159.799 122.441C161.129 122.707 162.426 122.84 163.757 122.84C165.852 122.84 167.482 122.474 168.613 121.743C169.743 121.011 170.342 119.947 170.342 118.583C170.342 117.652 170.043 116.887 169.444 116.255C168.845 115.623 167.715 115.058 166.085 114.526L161.262 113.029C158.834 112.264 157.038 111.133 155.941 109.637C154.843 108.173 154.278 106.543 154.278 104.814C154.278 103.417 154.577 102.186 155.176 101.122C155.775 100.058 156.573 99.1267 157.571 98.395C158.568 97.63 159.699 97.0646 161.03 96.6655C162.36 96.2664 163.757 96.1001 165.22 96.1001C165.952 96.1001 166.717 96.1334 167.448 96.2331C168.213 96.3329 168.912 96.4659 169.61 96.599C170.276 96.7653 170.907 96.9316 171.506 97.1311C172.105 97.3307 172.57 97.5302 172.903 97.7298C173.369 97.9959 173.701 98.2619 173.901 98.5613C174.1 98.8273 174.2 99.1932 174.2 99.6588V101.222C174.2 101.92 173.934 102.286 173.435 102.286C173.169 102.286 172.737 102.153 172.171 101.887C170.276 101.022 168.147 100.59 165.786 100.59C163.89 100.59 162.393 100.889 161.362 101.521C160.331 102.153 159.799 103.118 159.799 104.481C159.799 105.413 160.132 106.211 160.797 106.843C161.462 107.475 162.692 108.107 164.455 108.672L169.178 110.169C171.573 110.934 173.302 111.998 174.333 113.362C175.364 114.725 175.863 116.288 175.863 118.018C175.863 119.448 175.564 120.745 174.998 121.876C174.4 123.007 173.601 124.004 172.57 124.803C171.539 125.634 170.309 126.233 168.879 126.665C167.382 127.131 165.819 127.364 164.123 127.364V127.364Z" fill="#252F3E"/>
<path fill-rule="evenodd" clip-rule="evenodd" d="M170.408 143.527C159.466 151.609 143.568 155.9 129.899 155.9C110.742 155.9 93.4805 148.816 80.443 137.042C79.412 136.111 80.3432 134.847 81.5738 135.579C95.6756 143.76 113.07 148.716 131.063 148.716C143.203 148.716 156.539 146.188 168.812 141C170.641 140.168 172.204 142.197 170.408 143.527V143.527Z" fill="#FF9900"/>
<path fill-rule="evenodd" clip-rule="evenodd" d="M174.965 138.339C173.568 136.543 165.719 137.474 162.16 137.907C161.096 138.04 160.93 137.108 161.894 136.41C168.147 132.02 178.424 133.284 179.621 134.747C180.819 136.244 179.289 146.521 173.435 151.443C172.537 152.208 171.672 151.809 172.071 150.811C173.402 147.519 176.362 140.102 174.965 138.339V138.339Z" fill="#FF9900"/>
<defs>
<filter id="filter0_d_602_103" x="0.343384" y="0.405762" width="260" height="260" filterUnits="userSpaceOnUse" color-interpolation-filters="sRGB">
<feFlood flood-opacity="0" result="BackgroundImageFix"/>
<feColorMatrix in="SourceAlpha" type="matrix" values="0 0 0 0 0 0 0 0 0 0 0 0 0 0 0 0 0 0 127 0" result="hardAlpha"/>
<feOffset dy="4"/>
<feGaussianBlur stdDeviation="20"/>
<feComposite in2="hardAlpha" operator="out"/>
<feColorMatrix type="matrix" values="0 0 0 0 0.0367917 0 0 0 0 0.0348958 0 0 0 0 0.0484375 0 0 0 0.1 0"/>
<feBlend mode="normal" in2="BackgroundImageFix" result="effect1_dropShadow_602_103"/>
<feBlend mode="normal" in="SourceGraphic" in2="effect1_dropShadow_602_103" result="shape"/>
</filter>
</defs>
</svg>
