<svg width="261" height="261" viewBox="0 0 261 261" fill="none" xmlns="http://www.w3.org/2000/svg">
<g filter="url(#filter0_d_602_110)">
<rect x="40.724" y="36.4058" width="180" height="180" rx="32" fill="white"/>
<rect x="41.224" y="36.9058" width="179" height="179" rx="31.5" stroke="white"/>
</g>
<path d="M114.338 78.8607H143.929L113.211 169.929C113.053 170.394 112.825 170.832 112.533 171.227C112.242 171.622 111.89 171.968 111.492 172.254C111.093 172.54 110.653 172.763 110.185 172.913C109.718 173.063 109.23 173.14 108.74 173.14H85.7112C84.9637 173.14 84.2261 172.963 83.5611 172.62C82.8953 172.279 82.3206 171.783 81.8847 171.175C81.4485 170.567 81.1631 169.864 81.0522 169.124C80.9409 168.384 81.0084 167.628 81.2472 166.919L109.867 82.0696C110.023 81.6046 110.252 81.1671 110.544 80.772C110.835 80.377 111.188 80.0307 111.585 79.7445C111.984 79.4582 112.424 79.2357 112.892 79.0857C113.359 78.9357 113.847 78.8582 114.337 78.8582V78.8594L114.338 78.8607Z" fill="url(#paint0_linear_602_110)"/>
<path d="M168.887 173.14H142.316C142.02 173.14 141.724 173.113 141.431 173.057C141.14 173.002 140.854 172.919 140.577 172.81C140.301 172.702 140.036 172.567 139.785 172.409C139.534 172.251 139.298 172.069 139.081 171.867L108.929 143.707C108.61 143.41 108.388 143.023 108.291 142.597C108.195 142.172 108.229 141.727 108.389 141.321C108.549 140.915 108.827 140.566 109.188 140.321C109.549 140.076 109.975 139.945 110.412 139.945H157.335L168.884 173.142L168.887 173.14Z" fill="#0078D4"/>
<path d="M144.035 78.8607L123.321 139.951L157.166 139.943L168.775 173.141H142.305C142.031 173.138 141.757 173.113 141.487 173.064C141.217 173.016 140.952 172.944 140.695 172.849C140.178 172.661 139.698 172.386 139.275 172.036L118.921 153.039L113.223 169.843C113.076 170.263 112.873 170.662 112.62 171.028C112.114 171.765 111.422 172.354 110.614 172.737C110.212 172.927 109.786 173.063 109.348 173.141H85.725C84.9699 173.143 84.2249 172.963 83.5536 172.616C82.8822 172.268 82.3042 171.765 81.8686 171.147C81.433 170.529 81.1525 169.816 81.0509 169.067C80.9496 168.317 81.0298 167.555 81.2847 166.843L109.858 82.1334C110.007 81.6596 110.23 81.2133 110.52 80.8108C110.809 80.4083 111.162 80.0532 111.562 79.7607C111.962 79.4682 112.407 79.2407 112.878 79.0882C113.349 78.9357 113.843 78.8582 114.339 78.8607H144.036H144.035Z" fill="url(#paint1_linear_602_110)"/>
<path d="M180.752 166.919C180.991 167.628 181.059 168.384 180.949 169.124C180.838 169.864 180.553 170.567 180.117 171.176C179.681 171.783 179.107 172.279 178.441 172.62C177.776 172.962 177.039 173.14 176.291 173.141H143.311C144.059 173.141 144.796 172.962 145.463 172.621C146.128 172.279 146.703 171.783 147.139 171.176C147.575 170.568 147.86 169.864 147.971 169.124C148.083 168.384 148.015 167.628 147.776 166.919L119.156 82.0672C118.841 81.1325 118.24 80.3201 117.439 79.7445C117.042 79.4583 116.602 79.237 116.136 79.087C115.669 78.937 115.182 78.8607 114.693 78.8607H147.671C148.162 78.8607 148.648 78.937 149.115 79.087C149.582 79.237 150.022 79.4595 150.42 79.7445C150.818 80.0308 151.169 80.3771 151.46 80.7708C151.752 81.1646 151.979 81.6021 152.137 82.0672L180.757 166.919H180.752Z" fill="url(#paint2_linear_602_110)"/>
<defs>
<filter id="filter0_d_602_110" x="0.723999" y="0.405762" width="260" height="260" filterUnits="userSpaceOnUse" color-interpolation-filters="sRGB">
<feFlood flood-opacity="0" result="BackgroundImageFix"/>
<feColorMatrix in="SourceAlpha" type="matrix" values="0 0 0 0 0 0 0 0 0 0 0 0 0 0 0 0 0 0 127 0" result="hardAlpha"/>
<feOffset dy="4"/>
<feGaussianBlur stdDeviation="20"/>
<feComposite in2="hardAlpha" operator="out"/>
<feColorMatrix type="matrix" values="0 0 0 0 0.0367917 0 0 0 0 0.0348958 0 0 0 0 0.0484375 0 0 0 0.1 0"/>
<feBlend mode="normal" in2="BackgroundImageFix" result="effect1_dropShadow_602_110"/>
<feBlend mode="normal" in="SourceGraphic" in2="effect1_dropShadow_602_110" result="shape"/>
</filter>
<linearGradient id="paint0_linear_602_110" x1="125.138" y1="85.8486" x2="94.3856" y2="176.692" gradientUnits="userSpaceOnUse">
<stop stop-color="#114A8B"/>
<stop offset="1" stop-color="#0669BC"/>
</linearGradient>
<linearGradient id="paint1_linear_602_110" x1="134.726" y1="128.176" x2="127.613" y2="130.589" gradientUnits="userSpaceOnUse">
<stop stop-opacity="0.3"/>
<stop offset="0.1" stop-opacity="0.2"/>
<stop offset="0.3" stop-opacity="0.1"/>
<stop offset="0.6" stop-opacity="0.1"/>
<stop offset="1" stop-opacity="0"/>
</linearGradient>
<linearGradient id="paint2_linear_602_110" x1="130.8" y1="83.1985" x2="164.553" y2="173.117" gradientUnits="userSpaceOnUse">
<stop stop-color="#3CCBF4"/>
<stop offset="1" stop-color="#2892DF"/>
</linearGradient>
</defs>
</svg>
