<svg width="261" height="261" viewBox="0 0 261 261" fill="none" xmlns="http://www.w3.org/2000/svg">
<g filter="url(#filter0_d_602_21)">
<rect x="40.0673" y="36.4058" width="180" height="180" rx="32" fill="white"/>
<rect x="40.5673" y="36.9058" width="179" height="179" rx="31.5" stroke="white"/>
</g>
<path fill-rule="evenodd" clip-rule="evenodd" d="M100.77 86.1696C95.0645 86.1696 90.8424 91.1637 91.0314 96.5797C91.2129 101.783 90.9771 108.522 89.2807 114.018C87.5781 119.529 84.7008 123.021 80 123.47V128.53C84.7008 128.98 87.5781 132.47 89.2805 137.982C90.9771 143.478 91.2127 150.217 91.0312 155.42C90.8422 160.836 95.0643 165.83 100.771 165.83H159.237C164.943 165.83 169.164 160.836 168.975 155.42C168.794 150.217 169.03 143.478 170.726 137.982C172.429 132.47 175.299 128.978 180 128.53V123.47C175.299 123.02 172.429 119.53 170.726 114.018C169.029 108.523 168.794 101.783 168.975 96.5797C169.164 91.1645 164.943 86.1696 159.237 86.1696H100.77H100.77ZM147.797 135.206C147.797 142.664 142.234 147.187 133.003 147.187H117.288C116.839 147.187 116.407 147.008 116.09 146.69C115.772 146.372 115.593 145.941 115.593 145.492V106.509C115.593 106.059 115.772 105.628 116.09 105.31C116.407 104.992 116.839 104.814 117.288 104.814H132.913C140.611 104.814 145.662 108.983 145.662 115.385C145.662 119.878 142.264 123.9 137.934 124.605V124.839C143.828 125.486 147.797 129.568 147.797 135.206V135.206ZM131.289 110.187H122.329V122.843H129.876C135.71 122.843 138.926 120.494 138.926 116.295C138.926 112.359 136.16 110.187 131.289 110.187ZM122.329 127.864V141.812H131.619C137.693 141.812 140.91 139.375 140.91 134.794C140.91 130.214 137.603 127.864 131.228 127.864H122.329V127.864Z" fill="#7952B3"/>
<defs>
<filter id="filter0_d_602_21" x="0.0672607" y="0.405762" width="260" height="260" filterUnits="userSpaceOnUse" color-interpolation-filters="sRGB">
<feFlood flood-opacity="0" result="BackgroundImageFix"/>
<feColorMatrix in="SourceAlpha" type="matrix" values="0 0 0 0 0 0 0 0 0 0 0 0 0 0 0 0 0 0 127 0" result="hardAlpha"/>
<feOffset dy="4"/>
<feGaussianBlur stdDeviation="20"/>
<feComposite in2="hardAlpha" operator="out"/>
<feColorMatrix type="matrix" values="0 0 0 0 0.0367917 0 0 0 0 0.0348958 0 0 0 0 0.0484375 0 0 0 0.1 0"/>
<feBlend mode="normal" in2="BackgroundImageFix" result="effect1_dropShadow_602_21"/>
<feBlend mode="normal" in="SourceGraphic" in2="effect1_dropShadow_602_21" result="shape"/>
</filter>
</defs>
</svg>
