<svg width="261" height="261" viewBox="0 0 261 261" fill="none" xmlns="http://www.w3.org/2000/svg">
<g filter="url(#filter0_d_602_29)">
<rect x="40.8956" y="36.4058" width="180" height="180" rx="32" fill="white"/>
<rect x="41.3956" y="36.9058" width="179" height="179" rx="31.5" stroke="white"/>
</g>
<path d="M175.045 105.603C175.044 103.938 174.688 102.467 173.968 101.204C173.261 99.9624 172.201 98.9217 170.781 98.0989C159.052 91.3363 147.312 84.5943 135.588 77.8248C132.427 75.9999 129.362 76.0668 126.225 77.9178C121.557 80.6706 98.1842 94.0611 91.2196 98.0952C88.3514 99.7559 86.9557 102.297 86.955 105.6C86.9505 119.2 86.955 132.8 86.9505 146.4C86.9505 148.028 87.2921 149.471 87.9805 150.715C88.6881 151.994 89.7622 153.063 91.2158 153.904C98.1808 157.938 121.556 171.328 126.223 174.082C129.362 175.934 132.427 176 135.589 174.175C147.314 167.405 159.054 160.663 170.784 153.9C172.238 153.059 173.312 151.989 174.02 150.711C174.707 149.467 175.049 148.025 175.049 146.396C175.049 146.396 175.049 119.203 175.045 105.603Z" fill="#A179DC"/>
<path d="M131.135 125.867L87.9805 150.714C88.6881 151.994 89.7622 153.063 91.2158 153.904C98.1808 157.938 121.556 171.328 126.223 174.082C129.362 175.934 132.427 176 135.589 174.175C147.314 167.405 159.054 160.663 170.784 153.9C172.238 153.059 173.312 151.989 174.02 150.711L131.135 125.867Z" fill="#280068"/>
<path d="M175.045 105.603C175.044 103.938 174.688 102.467 173.968 101.204L131.135 125.868L174.02 150.711C174.707 149.468 175.049 148.025 175.05 146.396C175.05 146.396 175.05 119.203 175.045 105.603" fill="#390091"/>
<path d="M156.542 116.579V121.223H161.187V116.579H163.509V121.223H168.154V123.545H163.509V128.189H168.154V130.512H163.509V135.156H161.187V130.512H156.542V135.156H154.22V130.512H149.576V128.189H154.22V123.545H149.576V121.223H154.22V116.579H156.542ZM161.187 123.545H156.542V128.189H161.187V123.545Z" fill="white"/>
<path d="M131.229 93.2535C143.344 93.2535 153.92 99.8325 159.585 109.612L159.53 109.517L145.277 117.724C142.469 112.97 137.321 109.761 131.415 109.695L131.229 109.694C122.224 109.694 114.923 116.994 114.923 126C114.92 128.838 115.662 131.627 117.074 134.09C119.884 138.997 125.168 142.306 131.229 142.306C137.328 142.306 142.642 138.954 145.438 133.995L145.37 134.114L159.602 142.359C153.999 152.055 143.567 158.614 131.594 158.744L131.229 158.746C119.077 158.746 108.471 152.127 102.82 142.296C100.061 137.497 98.4827 131.933 98.4827 126C98.4827 107.915 113.143 93.2532 131.229 93.2532L131.229 93.2535Z" fill="white"/>
<defs>
<filter id="filter0_d_602_29" x="0.89563" y="0.405762" width="260" height="260" filterUnits="userSpaceOnUse" color-interpolation-filters="sRGB">
<feFlood flood-opacity="0" result="BackgroundImageFix"/>
<feColorMatrix in="SourceAlpha" type="matrix" values="0 0 0 0 0 0 0 0 0 0 0 0 0 0 0 0 0 0 127 0" result="hardAlpha"/>
<feOffset dy="4"/>
<feGaussianBlur stdDeviation="20"/>
<feComposite in2="hardAlpha" operator="out"/>
<feColorMatrix type="matrix" values="0 0 0 0 0.0367917 0 0 0 0 0.0348958 0 0 0 0 0.0484375 0 0 0 0.1 0"/>
<feBlend mode="normal" in2="BackgroundImageFix" result="effect1_dropShadow_602_29"/>
<feBlend mode="normal" in="SourceGraphic" in2="effect1_dropShadow_602_29" result="shape"/>
</filter>
</defs>
</svg>
