<svg width="261" height="261" viewBox="0 0 261 261" fill="none" xmlns="http://www.w3.org/2000/svg">
<g filter="url(#filter0_d_604_125)">
<rect x="40.0673" y="36.4058" width="180" height="180" rx="32" fill="white"/>
<rect x="40.5673" y="36.9058" width="179" height="179" rx="31.5" stroke="white"/>
</g>
<path d="M105.002 141.395L89.6031 125.996L139.603 76H170.397L105.002 141.395ZM170.397 122.136H139.603L128.068 133.671L143.467 149.07" fill="#42A5F5" fill-opacity="0.8"/>
<path d="M128.068 164.465L139.603 176H170.397L143.467 149.07" fill="#0D47A1"/>
<path d="M112.705 149.078L128.08 133.699L143.455 149.074L128.08 164.453L112.705 149.078Z" fill="#42A5F5"/>
<path d="M128.08 164.453L143.455 149.078L145.601 151.224L130.226 166.599L128.08 164.453Z" fill="url(#paint0_linear_604_125)"/>
<path d="M128.068 164.465L150.916 156.571L143.467 149.066" fill="url(#paint1_linear_604_125)"/>
<defs>
<filter id="filter0_d_604_125" x="0.0672684" y="0.405762" width="260" height="260" filterUnits="userSpaceOnUse" color-interpolation-filters="sRGB">
<feFlood flood-opacity="0" result="BackgroundImageFix"/>
<feColorMatrix in="SourceAlpha" type="matrix" values="0 0 0 0 0 0 0 0 0 0 0 0 0 0 0 0 0 0 127 0" result="hardAlpha"/>
<feOffset dy="4"/>
<feGaussianBlur stdDeviation="20"/>
<feComposite in2="hardAlpha" operator="out"/>
<feColorMatrix type="matrix" values="0 0 0 0 0.0367917 0 0 0 0 0.0348958 0 0 0 0 0.0484375 0 0 0 0.1 0"/>
<feBlend mode="normal" in2="BackgroundImageFix" result="effect1_dropShadow_604_125"/>
<feBlend mode="normal" in="SourceGraphic" in2="effect1_dropShadow_604_125" result="shape"/>
</filter>
<linearGradient id="paint0_linear_604_125" x1="135.77" y1="156.763" x2="137.917" y2="158.909" gradientUnits="userSpaceOnUse">
<stop offset="0.2" stop-opacity="0.15"/>
<stop offset="0.85" stop-color="#616161" stop-opacity="0.01"/>
</linearGradient>
<linearGradient id="paint1_linear_604_125" x1="128.073" y1="156.766" x2="150.921" y2="156.766" gradientUnits="userSpaceOnUse">
<stop offset="0.2" stop-opacity="0.55"/>
<stop offset="0.85" stop-color="#616161" stop-opacity="0.01"/>
</linearGradient>
</defs>
</svg>
