<svg width="261" height="261" viewBox="0 0 261 261" fill="none" xmlns="http://www.w3.org/2000/svg">
<g filter="url(#filter0_d_602_38)">
<rect x="40.8956" y="36.4058" width="180" height="180" rx="32" fill="white"/>
<rect x="41.3956" y="36.9058" width="179" height="179" rx="31.5" stroke="white"/>
</g>
<path d="M130.64 76.26C105.253 76.26 106.839 87.269 106.839 87.269L106.867 98.6746H131.092V102.099H97.2447C97.2447 102.099 81 100.257 81 125.871C81 151.486 95.1788 150.578 95.1788 150.578H103.641V138.691C103.641 138.691 103.184 124.513 117.593 124.513H141.621C141.621 124.513 155.12 124.731 155.12 111.466V89.5334C155.12 89.5334 157.17 76.26 130.64 76.26ZM117.282 83.9301C117.854 83.9296 118.421 84.0419 118.95 84.2608C119.479 84.4796 119.96 84.8006 120.365 85.2054C120.769 85.6102 121.09 86.0908 121.309 86.6198C121.528 87.1488 121.64 87.7158 121.64 88.2882C121.64 88.8607 121.528 89.4277 121.309 89.9567C121.09 90.4857 120.769 90.9663 120.365 91.3711C119.96 91.7759 119.479 92.0969 118.95 92.3157C118.421 92.5346 117.854 92.6469 117.282 92.6464C116.709 92.6469 116.142 92.5346 115.613 92.3157C115.084 92.0969 114.604 91.7759 114.199 91.3711C113.794 90.9663 113.473 90.4857 113.254 89.9567C113.035 89.4277 112.923 88.8607 112.924 88.2882C112.923 87.7158 113.035 87.1488 113.254 86.6198C113.473 86.0908 113.794 85.6102 114.199 85.2054C114.604 84.8006 115.084 84.4796 115.613 84.2608C116.142 84.0419 116.709 83.9296 117.282 83.9301V83.9301Z" fill="url(#paint0_linear_602_38)"/>
<path d="M131.361 175.74C156.747 175.74 155.162 164.731 155.162 164.731L155.134 153.326H130.908V149.902H164.755C164.755 149.902 181 151.744 181 126.128C181 100.514 166.821 101.422 166.821 101.422H158.359V113.308C158.359 113.308 158.816 127.487 144.407 127.487H120.379C120.379 127.487 106.88 127.269 106.88 140.534V162.467C106.88 162.467 104.83 175.74 131.36 175.74H131.361ZM144.719 168.071C144.146 168.071 143.579 167.959 143.05 167.74C142.521 167.521 142.041 167.2 141.636 166.795C141.231 166.391 140.91 165.91 140.691 165.381C140.472 164.852 140.36 164.285 140.361 163.713C140.36 163.14 140.472 162.573 140.691 162.044C140.91 161.515 141.231 161.034 141.636 160.629C142.041 160.225 142.521 159.904 143.05 159.685C143.579 159.466 144.146 159.354 144.719 159.354C145.291 159.354 145.858 159.466 146.387 159.685C146.916 159.904 147.397 160.225 147.802 160.629C148.206 161.034 148.527 161.515 148.746 162.044C148.965 162.573 149.077 163.14 149.077 163.712C149.077 164.285 148.965 164.852 148.746 165.381C148.527 165.91 148.206 166.39 147.802 166.795C147.397 167.2 146.916 167.521 146.387 167.74C145.858 167.959 145.291 168.071 144.719 168.07V168.071Z" fill="url(#paint1_linear_602_38)"/>
<defs>
<filter id="filter0_d_602_38" x="0.89563" y="0.405762" width="260" height="260" filterUnits="userSpaceOnUse" color-interpolation-filters="sRGB">
<feFlood flood-opacity="0" result="BackgroundImageFix"/>
<feColorMatrix in="SourceAlpha" type="matrix" values="0 0 0 0 0 0 0 0 0 0 0 0 0 0 0 0 0 0 127 0" result="hardAlpha"/>
<feOffset dy="4"/>
<feGaussianBlur stdDeviation="20"/>
<feComposite in2="hardAlpha" operator="out"/>
<feColorMatrix type="matrix" values="0 0 0 0 0.0367917 0 0 0 0 0.0348958 0 0 0 0 0.0484375 0 0 0 0.1 0"/>
<feBlend mode="normal" in2="BackgroundImageFix" result="effect1_dropShadow_602_38"/>
<feBlend mode="normal" in="SourceGraphic" in2="effect1_dropShadow_602_38" result="shape"/>
</filter>
<linearGradient id="paint0_linear_602_38" x1="90.61" y1="85.2076" x2="140.167" y2="134.27" gradientUnits="userSpaceOnUse">
<stop stop-color="#387EB8"/>
<stop offset="1" stop-color="#366994"/>
</linearGradient>
<linearGradient id="paint1_linear_602_38" x1="121.028" y1="116.713" x2="174.247" y2="167.022" gradientUnits="userSpaceOnUse">
<stop stop-color="#FFE052"/>
<stop offset="1" stop-color="#FFC331"/>
</linearGradient>
</defs>
</svg>
