<svg width="261" height="261" viewBox="0 0 261 261" fill="none" xmlns="http://www.w3.org/2000/svg">
<g filter="url(#filter0_d_604_117)">
<rect x="40.724" y="36.4058" width="180" height="180" rx="32" fill="white"/>
<rect x="41.224" y="36.9058" width="179" height="179" rx="31.5" stroke="white"/>
</g>
<path d="M168.177 139.103V143.675H176.436C178.129 143.675 181.033 142.438 181.135 138.977V137.209C181.135 134.254 178.71 132.511 176.436 132.511H172.319V130.389H180.478V125.792H172.648C170.627 125.792 167.924 127.459 167.924 130.566V132.157C167.924 135.264 170.602 136.855 172.648 136.855C178.331 136.881 171.284 136.855 176.537 136.855V139.078L168.177 139.103ZM123.923 137.992C123.923 137.992 128.343 137.613 128.343 131.905C128.343 126.196 122.989 125.666 122.989 125.666H113.34V143.675H118.189V139.331L122.382 143.675H129.556L123.923 137.992V137.992ZM122.054 134.304H118.189V130.187H122.079C122.079 130.187 123.165 130.591 123.165 132.233C123.165 133.875 122.054 134.304 122.054 134.304V134.304ZM140.316 125.792H135.391C131.88 125.792 130.692 128.975 130.692 130.49V143.675H135.618V140.518H140.24V143.675H145.014V130.49C145.014 126.651 141.529 125.792 140.316 125.792V125.792ZM140.24 135.416H135.593V131.046C135.593 131.046 135.593 130.061 137.134 130.061H138.826C140.19 130.061 140.215 131.046 140.215 131.046V135.416H140.24V135.416ZM147.262 125.792H152.39V143.675H147.262V125.792ZM159.589 139.053V125.792H154.486V143.675H166.484V139.053H159.589Z" fill="#CC0000"/>
<path d="M82.9026 143.675H102.857C102.857 143.675 99.0431 126.272 111.673 119.225C114.426 117.886 123.191 112.885 137.538 123.493C137.992 123.115 138.422 122.811 138.422 122.811C138.422 122.811 125.287 109.702 110.662 111.167C103.312 111.824 94.2692 118.517 88.9648 127.358C83.6604 136.199 82.9026 143.675 82.9026 143.675Z" fill="#CC0000"/>
<path d="M82.9026 143.675H102.857C102.857 143.675 99.0431 126.272 111.673 119.225C114.426 117.886 123.191 112.885 137.538 123.493C137.992 123.115 138.422 122.811 138.422 122.811C138.422 122.811 125.287 109.702 110.662 111.167C103.312 111.824 94.2692 118.517 88.9648 127.358C83.6604 136.199 82.9026 143.675 82.9026 143.675Z" fill="#CC0000"/>
<path d="M82.9026 143.675H102.857C102.857 143.675 99.0431 126.272 111.673 119.225C114.426 117.886 123.191 112.885 137.538 123.493C137.992 123.114 138.422 122.811 138.422 122.811C138.422 122.811 125.287 109.702 110.662 111.167C103.287 111.824 94.2439 118.517 88.9395 127.358C83.6352 136.199 82.9026 143.675 82.9026 143.675ZM124.479 112.582L124.58 110.889C124.353 110.763 123.721 110.46 122.13 110.005L122.029 111.672C122.862 111.95 123.671 112.253 124.479 112.582Z" fill="#CC0000"/>
<path d="M122.079 117.936L121.978 119.528C122.812 119.553 123.645 119.654 124.479 119.831L124.58 118.265C123.721 118.088 122.887 117.987 122.079 117.936ZM112.733 110.056H112.986L112.481 108.515C111.698 108.515 110.89 108.565 110.056 108.666L110.536 110.157C111.268 110.081 112.001 110.056 112.733 110.056V110.056ZM113.946 119.351L114.527 121.094C115.259 120.74 115.992 120.437 116.724 120.21L116.169 118.543C115.31 118.795 114.577 119.073 113.946 119.351ZM102.478 112.708L101.342 110.965C100.71 111.293 100.053 111.647 99.3715 112.051L100.533 113.819C101.19 113.415 101.822 113.036 102.478 112.708ZM107.656 124.074L108.869 125.893C109.298 125.262 109.803 124.681 110.359 124.1L109.222 122.382C108.641 122.912 108.111 123.493 107.656 124.074ZM103.994 132.208L106.04 133.824C106.141 132.839 106.318 131.854 106.57 130.869L104.752 129.429C104.423 130.364 104.196 131.298 103.994 132.208V132.208ZM92.9304 120.21L91.137 118.644C90.4803 119.275 89.8488 119.907 89.2679 120.538L91.2128 122.205C91.7433 121.523 92.3242 120.841 92.9304 120.21ZM85.3022 131.5L82.3975 130.44C81.9175 131.526 81.3871 132.789 81.1345 133.471L84.0393 134.532C84.3677 133.673 84.8981 132.435 85.3022 131.5ZM103.615 138.624C103.665 139.962 103.792 141.048 103.918 141.806L106.949 142.892C106.722 141.907 106.494 140.796 106.343 139.609L103.615 138.624Z" fill="#CC0000"/>
<defs>
<filter id="filter0_d_604_117" x="0.723999" y="0.405762" width="260" height="260" filterUnits="userSpaceOnUse" color-interpolation-filters="sRGB">
<feFlood flood-opacity="0" result="BackgroundImageFix"/>
<feColorMatrix in="SourceAlpha" type="matrix" values="0 0 0 0 0 0 0 0 0 0 0 0 0 0 0 0 0 0 127 0" result="hardAlpha"/>
<feOffset dy="4"/>
<feGaussianBlur stdDeviation="20"/>
<feComposite in2="hardAlpha" operator="out"/>
<feColorMatrix type="matrix" values="0 0 0 0 0.0367917 0 0 0 0 0.0348958 0 0 0 0 0.0484375 0 0 0 0.1 0"/>
<feBlend mode="normal" in2="BackgroundImageFix" result="effect1_dropShadow_604_117"/>
<feBlend mode="normal" in="SourceGraphic" in2="effect1_dropShadow_604_117" result="shape"/>
</filter>
</defs>
</svg>
