<svg width="1200" height="1200" viewBox="0 0 1200 1200" fill="none" xmlns="http://www.w3.org/2000/svg">
<rect width="1200" height="1200" fill="#151F42"/>
<path d="M610.153 146.429L981.449 517.724C987.76 524.036 987.827 534.201 981.598 540.43L925.609 596.419C919.38 602.649 909.215 602.581 902.904 596.269L599.772 293.137L296.869 596.039C290.642 602.266 280.476 602.2 274.164 595.889L217.429 539.153C211.117 532.842 211.05 522.674 217.277 516.447L587.446 146.279C593.675 140.049 603.842 140.117 610.153 146.429Z" fill="url(#paint0_linear_608_75)"/>
<path d="M90.3828 716.551C90.3828 705.77 95.4219 696.629 105.5 689.129C115.227 681.98 126.828 678.406 140.305 678.406H158.234C169.133 678.406 179.68 680.926 189.875 685.965C194.094 688.191 197.492 690.535 200.07 692.996L176.516 711.102C172.648 705.711 167.375 702.605 160.695 701.785C159.875 701.668 159.055 701.609 158.234 701.609H140.305C131.516 701.609 124.895 704.07 120.441 708.992C118.449 711.453 117.453 713.973 117.453 716.551C117.453 721.121 122.316 725.047 132.043 728.328C135.09 729.383 140.246 730.848 147.512 732.723C165.09 737.293 177.395 741.746 184.426 746.082C195.91 753.113 201.711 762.371 201.828 773.855C201.828 784.52 196.672 793.602 186.359 801.102C176.164 808.367 164.094 812 150.148 812H132.219C120.852 812 109.836 809.48 99.1719 804.441C94.7188 802.215 91.2031 799.871 88.625 797.41L111.828 779.48C115.93 784.637 121.672 787.684 129.055 788.621C130.227 788.738 131.281 788.797 132.219 788.797H150.148C159.641 788.797 166.789 786.277 171.594 781.238C173.703 778.895 174.758 776.434 174.758 773.855C174.758 768.699 169.895 764.422 160.168 761.023C158.762 760.438 150.266 758.035 134.68 753.816C116.75 749.012 104.562 743.211 98.1172 736.414C92.9609 730.789 90.3828 724.168 90.3828 716.551ZM269.152 790.555H287.082C295.168 790.555 301.672 786.922 306.594 779.656C309.992 774.617 311.691 769.051 311.691 762.957V727.449C311.691 718.191 308.352 710.809 301.672 705.301C297.336 701.668 292.473 699.852 287.082 699.852H269.152C261.066 699.852 254.562 703.426 249.641 710.574C246.125 715.613 244.367 721.238 244.367 727.449V762.957C244.367 772.098 247.648 779.422 254.211 784.93C258.781 788.68 263.762 790.555 269.152 790.555ZM318.195 803.562L335.949 822.723H302.199L294.641 813.23C292.18 813.582 289.66 813.758 287.082 813.758H269.152C254.621 813.758 242.258 808.602 232.062 798.289C222.336 788.445 217.473 776.668 217.473 762.957V727.449C217.473 713.152 222.629 701.023 232.941 691.062C243.137 681.453 255.207 676.648 269.152 676.648H287.082C301.613 676.648 313.977 681.805 324.172 692.117C333.898 701.961 338.762 713.738 338.762 727.449V762.957C338.762 777.137 333.605 789.207 323.293 799.168C321.652 800.809 319.953 802.273 318.195 803.562ZM359.328 678.406H386.398V761.199C386.398 770.457 389.738 777.84 396.418 783.348C400.754 786.98 405.617 788.797 411.008 788.797H425.422C433.508 788.797 440.012 785.223 444.934 778.074C448.449 773.035 450.207 767.41 450.207 761.199V678.406H477.102V761.199C477.102 775.496 471.945 787.625 461.633 797.586C451.438 807.195 439.367 812 425.422 812H411.008C396.477 812 384.113 806.844 373.918 796.531C364.191 786.688 359.328 774.91 359.328 761.199V678.406ZM586.438 794.246H527.902L542.316 771.043H578.352L555.5 705.477L518.234 812H489.406L528.605 700.203C534.348 684.617 543.312 676.766 555.5 676.648C567.688 676.766 576.594 684.617 582.219 700.203L621.594 812H592.766L586.438 794.246ZM663.43 701.609V812H636.535V701.961C636.535 693.992 639.934 687.664 646.73 682.977C651.301 679.93 656.34 678.406 661.848 678.406H698.234C714.523 678.406 727.59 683.27 737.434 692.996C745.754 701.316 749.914 711.57 749.914 723.758V728.855C749.914 744.09 743.879 755.926 731.809 764.363C727.238 767.527 722.199 769.93 716.691 771.57L752.902 812H719.328L685.93 774.207H665.188L679.602 751.004H698.234C709.25 751.004 716.691 747.195 720.559 739.578C722.082 736.414 722.844 732.84 722.844 728.855V723.758C722.844 713.211 718.098 706.355 708.605 703.191C705.441 702.137 701.984 701.609 698.234 701.609H663.43ZM797.727 757.508V788.797H866.633L879.289 812H796.145C787.59 812 780.734 808.777 775.578 802.332C772.297 798.113 770.656 793.484 770.656 788.445V701.961C770.656 694.109 774.055 687.84 780.852 683.152C785.422 679.988 790.52 678.406 796.145 678.406H879.289L866.633 701.609H797.727V734.305H861.184V757.508H797.727ZM953.996 678.406H980.891V812H953.996V678.406ZM1062.98 812H1035.91V701.961C1035.91 694.109 1039.31 687.84 1046.11 683.152C1050.68 679.988 1055.77 678.406 1061.4 678.406H1101.3V701.609H1062.98V812ZM1041.01 678.406L1026.59 701.609H1000.05V678.406H1041.01Z" fill="white"/>
<path d="M118.295 864.371C117.985 861.757 116.729 859.727 114.528 858.282C112.326 856.837 109.626 856.115 106.427 856.115C104.087 856.115 102.04 856.493 100.286 857.25C98.5489 858.007 97.1901 859.048 96.2097 860.372C95.2465 861.696 94.7649 863.201 94.7649 864.887C94.7649 866.297 95.1003 867.51 95.7711 868.525C96.4591 869.522 97.3363 870.357 98.4027 871.027C99.4691 871.681 100.587 872.223 101.757 872.653C102.926 873.066 104.001 873.401 104.982 873.659L110.348 875.104C111.724 875.465 113.255 875.964 114.941 876.6C116.643 877.237 118.269 878.105 119.817 879.206C121.382 880.29 122.672 881.683 123.687 883.386C124.702 885.089 125.209 887.178 125.209 889.655C125.209 892.51 124.461 895.09 122.964 897.395C121.485 899.7 119.318 901.532 116.463 902.891C113.625 904.249 110.176 904.929 106.117 904.929C102.333 904.929 99.0563 904.318 96.2871 903.097C93.535 901.876 91.3678 900.173 89.7854 897.989C88.2202 895.804 87.3344 893.267 87.128 890.378H93.7328C93.9048 892.373 94.5757 894.024 95.7453 895.331C96.9321 896.621 98.4285 897.584 100.234 898.221C102.058 898.84 104.018 899.15 106.117 899.15C108.559 899.15 110.752 898.754 112.696 897.963C114.64 897.154 116.179 896.036 117.314 894.609C118.449 893.164 119.017 891.478 119.017 889.552C119.017 887.798 118.527 886.37 117.546 885.269C116.566 884.168 115.276 883.274 113.676 882.586C112.077 881.898 110.348 881.296 108.491 880.78L101.989 878.922C97.8609 877.735 94.5929 876.041 92.1848 873.84C89.7768 871.638 88.5728 868.757 88.5728 865.197C88.5728 862.238 89.3726 859.658 90.9722 857.457C92.589 855.238 94.7563 853.518 97.4739 852.297C100.209 851.058 103.262 850.439 106.633 850.439C110.039 850.439 113.066 851.05 115.715 852.271C118.363 853.475 120.462 855.126 122.01 857.224C123.575 859.323 124.401 861.705 124.487 864.371H118.295ZM180.312 877.581C180.312 883.154 179.305 887.97 177.293 892.029C175.281 896.088 172.52 899.218 169.011 901.42C165.502 903.622 161.495 904.722 156.988 904.722C152.482 904.722 148.474 903.622 144.965 901.42C141.457 899.218 138.696 896.088 136.684 892.029C134.671 887.97 133.665 883.154 133.665 877.581C133.665 872.008 134.671 867.192 136.684 863.133C138.696 859.073 141.457 855.943 144.965 853.741C148.474 851.54 152.482 850.439 156.988 850.439C161.495 850.439 165.502 851.54 169.011 853.741C172.52 855.943 175.281 859.073 177.293 863.133C179.305 867.192 180.312 872.008 180.312 877.581ZM174.12 877.581C174.12 873.005 173.354 869.144 171.823 865.996C170.31 862.849 168.254 860.467 165.657 858.85C163.077 857.233 160.188 856.425 156.988 856.425C153.789 856.425 150.891 857.233 148.294 858.85C145.714 860.467 143.658 862.849 142.127 865.996C140.614 869.144 139.857 873.005 139.857 877.581C139.857 882.156 140.614 886.017 142.127 889.165C143.658 892.313 145.714 894.695 148.294 896.312C150.891 897.928 153.789 898.737 156.988 898.737C160.188 898.737 163.077 897.928 165.657 896.312C168.254 894.695 170.31 892.313 171.823 889.165C173.354 886.017 174.12 882.156 174.12 877.581ZM191.07 904V851.161H222.753V856.837H197.469V874.691H220.379V880.367H197.469V904H191.07ZM230.822 856.837V851.161H270.451V856.837H253.835V904H247.437V856.837H230.822ZM289.923 904L275.475 851.161H281.977L293.019 894.196H293.535L304.784 851.161H312.008L323.257 894.196H323.773L334.816 851.161H341.317L326.869 904H320.264L308.603 861.894H308.19L296.528 904H289.923ZM347.342 904H340.634L360.035 851.161H366.64L386.042 904H379.334L363.544 859.521H363.131L347.342 904ZM349.818 883.36H376.857V889.036H349.818V883.36ZM394.272 904V851.161H412.126C416.254 851.161 419.642 851.867 422.291 853.277C424.94 854.67 426.901 856.588 428.173 859.03C429.446 861.473 430.083 864.251 430.083 867.364C430.083 870.477 429.446 873.238 428.173 875.646C426.901 878.054 424.948 879.946 422.317 881.322C419.685 882.681 416.322 883.36 412.229 883.36H397.781V877.581H412.022C414.843 877.581 417.114 877.168 418.834 876.342C420.571 875.517 421.826 874.347 422.6 872.833C423.392 871.303 423.787 869.479 423.787 867.364C423.787 865.248 423.392 863.399 422.6 861.817C421.809 860.234 420.545 859.013 418.808 858.153C417.071 857.276 414.774 856.837 411.919 856.837H400.67V904H394.272ZM419.143 880.264L432.147 904H424.716L411.919 880.264H419.143ZM440.744 904V851.161H472.633V856.837H447.143V874.691H470.982V880.367H447.143V898.324H473.046V904H440.744ZM547.118 867.673H540.72C540.341 865.833 539.679 864.216 538.733 862.823C537.804 861.43 536.669 860.26 535.328 859.314C534.003 858.351 532.533 857.629 530.916 857.147C529.299 856.665 527.613 856.425 525.859 856.425C522.66 856.425 519.762 857.233 517.164 858.85C514.584 860.467 512.529 862.849 510.998 865.996C509.485 869.144 508.728 873.005 508.728 877.581C508.728 882.156 509.485 886.017 510.998 889.165C512.529 892.313 514.584 894.695 517.164 896.312C519.762 897.928 522.66 898.737 525.859 898.737C527.613 898.737 529.299 898.496 530.916 898.014C532.533 897.533 534.003 896.819 535.328 895.873C536.669 894.91 537.804 893.732 538.733 892.338C539.679 890.928 540.341 889.311 540.72 887.488H547.118C546.637 890.188 545.76 892.605 544.487 894.738C543.214 896.871 541.631 898.685 539.739 900.182C537.847 901.661 535.723 902.787 533.367 903.561C531.028 904.335 528.525 904.722 525.859 904.722C521.353 904.722 517.345 903.622 513.836 901.42C510.327 899.218 507.567 896.088 505.554 892.029C503.542 887.97 502.536 883.154 502.536 877.581C502.536 872.008 503.542 867.192 505.554 863.133C507.567 859.073 510.327 855.943 513.836 853.741C517.345 851.54 521.353 850.439 525.859 850.439C528.525 850.439 531.028 850.826 533.367 851.6C535.723 852.374 537.847 853.509 539.739 855.006C541.631 856.485 543.214 858.291 544.487 860.424C545.76 862.539 546.637 864.956 547.118 867.673ZM557.458 904V851.161H575.311C579.439 851.161 582.828 851.867 585.477 853.277C588.125 854.67 590.086 856.588 591.359 859.03C592.632 861.473 593.268 864.251 593.268 867.364C593.268 870.477 592.632 873.238 591.359 875.646C590.086 878.054 588.134 879.946 585.502 881.322C582.871 882.681 579.508 883.36 575.415 883.36H560.967V877.581H575.208C578.029 877.581 580.299 877.168 582.019 876.342C583.757 875.517 585.012 874.347 585.786 872.833C586.577 871.303 586.973 869.479 586.973 867.364C586.973 865.248 586.577 863.399 585.786 861.817C584.995 860.234 583.731 859.013 581.994 858.153C580.256 857.276 577.96 856.837 575.105 856.837H563.856V904H557.458ZM582.329 880.264L595.332 904H587.902L575.105 880.264H582.329ZM606.097 904H599.389L618.791 851.161H625.396L644.798 904H638.09L622.3 859.521H621.887L606.097 904ZM608.574 883.36H635.613V889.036H608.574V883.36ZM653.028 904V851.161H684.71V856.837H659.426V874.691H682.337V880.367H659.426V904H653.028ZM692.779 856.837V851.161H732.408V856.837H715.793V904H709.395V856.837H692.779ZM771.179 864.371C770.87 861.757 769.614 859.727 767.413 858.282C765.211 856.837 762.511 856.115 759.311 856.115C756.972 856.115 754.925 856.493 753.171 857.25C751.434 858.007 750.075 859.048 749.095 860.372C748.131 861.696 747.65 863.201 747.65 864.887C747.65 866.297 747.985 867.51 748.656 868.525C749.344 869.522 750.221 870.357 751.288 871.027C752.354 871.681 753.472 872.223 754.642 872.653C755.811 873.066 756.886 873.401 757.867 873.659L763.233 875.104C764.609 875.465 766.14 875.964 767.825 876.6C769.528 877.237 771.154 878.105 772.702 879.206C774.267 880.29 775.557 881.683 776.572 883.386C777.586 885.089 778.094 887.178 778.094 889.655C778.094 892.51 777.346 895.09 775.849 897.395C774.37 899.7 772.203 901.532 769.348 902.891C766.51 904.249 763.061 904.929 759.002 904.929C755.218 904.929 751.941 904.318 749.172 903.097C746.42 901.876 744.253 900.173 742.67 897.989C741.105 895.804 740.219 893.267 740.013 890.378H746.618C746.79 892.373 747.461 894.024 748.63 895.331C749.817 896.621 751.313 897.584 753.119 898.221C754.943 898.84 756.903 899.15 759.002 899.15C761.444 899.15 763.637 898.754 765.581 897.963C767.524 897.154 769.064 896.036 770.199 894.609C771.334 893.164 771.902 891.478 771.902 889.552C771.902 887.798 771.412 886.37 770.431 885.269C769.451 884.168 768.161 883.274 766.561 882.586C764.962 881.898 763.233 881.296 761.375 880.78L754.874 878.922C750.746 877.735 747.478 876.041 745.07 873.84C742.662 871.638 741.458 868.757 741.458 865.197C741.458 862.238 742.258 859.658 743.857 857.457C745.474 855.238 747.641 853.518 750.359 852.297C753.094 851.058 756.147 850.439 759.518 850.439C762.923 850.439 765.951 851.05 768.599 852.271C771.248 853.475 773.347 855.126 774.895 857.224C776.46 859.323 777.285 861.705 777.371 864.371H771.179ZM788.614 851.161H796.251L814.208 895.022H814.827L832.784 851.161H840.42V904H834.435V863.855H833.919L817.407 904H811.628L795.115 863.855H794.599V904H788.614V851.161ZM855.417 904H848.709L868.11 851.161H874.715L894.117 904H887.409L871.619 859.521H871.206L855.417 904ZM857.894 883.36H884.932V889.036H857.894V883.36ZM944.247 851.161V904H938.055L909.262 862.513H908.746V904H902.347V851.161H908.539L937.435 892.751H937.951V851.161H944.247ZM985.946 864.371C985.636 861.757 984.381 859.727 982.179 858.282C979.978 856.837 977.277 856.115 974.078 856.115C971.739 856.115 969.692 856.493 967.938 857.25C966.2 858.007 964.842 859.048 963.861 860.372C962.898 861.696 962.416 863.201 962.416 864.887C962.416 866.297 962.752 867.51 963.423 868.525C964.111 869.522 964.988 870.357 966.054 871.027C967.121 871.681 968.239 872.223 969.408 872.653C970.578 873.066 971.653 873.401 972.633 873.659L978 875.104C979.376 875.465 980.906 875.964 982.592 876.6C984.295 877.237 985.92 878.105 987.468 879.206C989.033 880.29 990.323 881.683 991.338 883.386C992.353 885.089 992.86 887.178 992.86 889.655C992.86 892.51 992.112 895.09 990.616 897.395C989.137 899.7 986.969 901.532 984.114 902.891C981.276 904.249 977.828 904.929 973.768 904.929C969.984 904.929 966.708 904.318 963.939 903.097C961.187 901.876 959.019 900.173 957.437 897.989C955.872 895.804 954.986 893.267 954.78 890.378H961.384C961.556 892.373 962.227 894.024 963.397 895.331C964.584 896.621 966.08 897.584 967.886 898.221C969.709 898.84 971.67 899.15 973.768 899.15C976.211 899.15 978.404 898.754 980.347 897.963C982.291 897.154 983.83 896.036 984.966 894.609C986.101 893.164 986.668 891.478 986.668 889.552C986.668 887.798 986.178 886.37 985.198 885.269C984.217 884.168 982.927 883.274 981.328 882.586C979.728 881.898 978 881.296 976.142 880.78L969.64 878.922C965.512 877.735 962.244 876.041 959.836 873.84C957.428 871.638 956.224 868.757 956.224 865.197C956.224 862.238 957.024 859.658 958.624 857.457C960.241 855.238 962.408 853.518 965.125 852.297C967.86 851.058 970.913 850.439 974.284 850.439C977.69 850.439 980.717 851.05 983.366 852.271C986.015 853.475 988.113 855.126 989.661 857.224C991.226 859.323 992.052 861.705 992.138 864.371H985.946ZM1003.38 904V851.161H1009.78V874.691H1037.95V851.161H1044.35V904H1037.95V880.367H1009.78V904H1003.38ZM1063.56 851.161V904H1057.16V851.161H1063.56ZM1076.39 904V851.161H1094.24C1098.39 851.161 1101.78 851.91 1104.41 853.406C1107.06 854.885 1109.02 856.889 1110.29 859.417C1111.56 861.946 1112.2 864.767 1112.2 867.88C1112.2 870.993 1111.56 873.822 1110.29 876.368C1109.03 878.914 1107.09 880.943 1104.46 882.457C1101.83 883.953 1098.46 884.702 1094.35 884.702H1081.55V879.025H1094.14C1096.98 879.025 1099.26 878.535 1100.98 877.555C1102.7 876.574 1103.94 875.25 1104.72 873.582C1105.51 871.896 1105.9 869.995 1105.9 867.88C1105.9 865.764 1105.51 863.872 1104.72 862.204C1103.94 860.535 1102.69 859.228 1100.95 858.282C1099.21 857.319 1096.91 856.837 1094.04 856.837H1082.79V904H1076.39Z" fill="url(#paint1_linear_608_75)"/>
<defs>
<linearGradient id="paint0_linear_608_75" x1="2972.85" y1="363.838" x2="209.644" y2="366.363" gradientUnits="userSpaceOnUse">
<stop stop-color="#B06AB3"/>
<stop offset="1" stop-color="#4568DC"/>
</linearGradient>
<linearGradient id="paint1_linear_608_75" x1="83" y1="922" x2="1117" y2="922" gradientUnits="userSpaceOnUse">
<stop stop-color="#4768DB"/>
<stop offset="1" stop-color="#AF6AB3"/>
</linearGradient>
</defs>
</svg>
